<svg width="47" height="49" viewBox="0 0 47 49" fill="none" xmlns="http://www.w3.org/2000/svg">
<path fill-rule="evenodd" clip-rule="evenodd" d="M25.2491 6.06788C15.8086 8.56321 8.10952 12.7206 -3.8147e-06 17.0344C0.233543 16.5276 0.468227 16.0594 0.778866 15.5923L1.28904 14.7726C6.43727 7.4839 15.7179 2.57375 23.4805 1.32552C34.9867 -0.623356 41.7471 1.66563 25.248 6.06902L25.2491 6.06788ZM25.3852 46.2527C17.66 43.2529 9.32146 42.8765 2.34113 41.0841C2.73227 40.8891 3.15968 40.6555 3.5905 40.5002L4.3705 40.227C11.5073 37.7713 20.8242 39.2123 26.7502 42.1747C35.6046 46.6575 38.9162 51.4758 25.3852 46.2539V46.2527ZM34.1285 26.9318C22.4692 26.2776 10.9382 28.9566 1.48291 30.9112C1.91259 30.4429 2.34114 29.9747 2.84904 29.5462L3.70727 28.8058C11.9744 22.3357 25.1063 20.3041 34.2736 21.4741C47.9633 23.2268 54.2917 27.595 34.1285 26.9329V26.9318Z" fill="white"/>
</svg>
