<svg width="733" height="522" viewBox="0 0 733 522" fill="none" xmlns="http://www.w3.org/2000/svg">
<path d="M59.648 190.416C66.144 190.416 71.552 181.776 71.552 174.416C71.552 169.872 69.44 166.544 65.472 166.544C58.976 166.544 53.568 175.152 53.568 182.544C53.568 187.088 55.68 190.416 59.648 190.416ZM59.84 189.744C58.208 189.744 57.12 187.792 57.12 184.4C57.12 178.736 60.832 167.216 65.312 167.216C66.912 167.216 68.032 169.168 68.032 172.56C68.032 178.224 64.288 189.744 59.84 189.744ZM84.9095 190L85.0055 189.552C84.2375 189.456 83.2135 189.072 83.7575 186.96L88.8455 166.032L82.0615 170.352L81.9015 170.896C83.5655 170.064 84.4295 170.736 83.9495 172.816L80.4935 186.928C79.9815 189.072 78.7975 189.456 77.8375 189.552L77.7415 190H84.9095Z" fill="#FF267E"/>
<path d="M147.648 77.416C154.144 77.416 159.552 68.776 159.552 61.416C159.552 56.872 157.44 53.544 153.472 53.544C146.976 53.544 141.568 62.152 141.568 69.544C141.568 74.088 143.68 77.416 147.648 77.416ZM147.84 76.744C146.208 76.744 145.12 74.792 145.12 71.4C145.12 65.736 148.832 54.216 153.312 54.216C154.912 54.216 156.032 56.168 156.032 59.56C156.032 65.224 152.288 76.744 147.84 76.744ZM183.95 58.536C184.206 54.984 181.102 53.544 178.126 53.544C172.75 53.544 169.742 58.248 169.678 60.296C169.582 61.704 170.222 62.632 171.31 62.632C172.494 62.632 173.614 61.576 173.646 60.552C173.678 59.592 172.814 58.664 172.91 57.48C173.006 55.88 175.214 54.088 177.678 54.088C179.758 54.088 180.878 55.432 180.654 58.184C180.494 61.256 177.582 63.944 174.574 66.952L164.462 77H174.542C177.454 77 178.158 77.192 178.862 77.448L182.222 70.952H181.678C180.558 72.744 178.766 74.056 175.31 74.056H168.27L175.726 68.552C179.758 65.608 183.758 62.984 183.95 58.536Z" fill="#FF267E"/>
<path d="M381.648 29.416C388.144 29.416 393.552 20.776 393.552 13.416C393.552 8.872 391.44 5.544 387.472 5.544C380.976 5.544 375.568 14.152 375.568 21.544C375.568 26.088 377.68 29.416 381.648 29.416ZM381.84 28.744C380.208 28.744 379.12 26.792 379.12 23.4C379.12 17.736 382.832 6.216 387.312 6.216C388.912 6.216 390.032 8.168 390.032 11.56C390.032 17.224 386.288 28.744 381.84 28.744ZM417.598 9.608C417.598 6.728 414.974 5.544 411.582 5.544C407.454 5.544 404.286 8.872 404.286 11.176C404.286 12.36 404.862 12.968 405.918 12.968C406.942 12.968 407.998 12.168 407.998 11.016C407.998 10.376 407.55 9.864 407.55 9.16C407.55 7.528 409.054 6.088 411.134 6.088C413.022 6.088 414.27 7.272 414.27 9.192C414.27 13.192 410.59 15.624 405.502 17.384L405.598 17.8C406.302 17.608 407.198 17.512 407.806 17.512C410.75 17.512 412.286 19.272 412.318 21.608C412.382 25.416 409.886 28.84 406.462 28.84C404.67 28.84 403.39 27.88 403.39 26.728C403.39 25.288 404.862 24.776 404.862 23.304C404.862 22.376 404.126 21.928 403.262 21.928C401.79 21.928 400.542 23.688 400.542 25.48C400.542 27.336 402.078 29.416 406.302 29.416C411.166 29.416 415.902 26.504 415.902 21.384C415.902 18.888 413.95 16.84 409.982 16.84C409.534 16.84 409.022 16.872 408.51 16.936C412.99 15.784 417.598 13.288 417.598 9.608Z" fill="#FF267E"/>
<path d="M732 167C313 197 99.5 259.5 65 440" stroke="url(#paint0_linear_923_1837)"/>
<path d="M54 213H200.659L264 245" stroke="white" stroke-dasharray="1 4"/>
<path d="M141 97H347.623L414 198" stroke="white" stroke-dasharray="1 4"/>
<path d="M377 48H590.018L671 168" stroke="white" stroke-dasharray="1 4"/>
<path d="M62.1128 492.173L63.3821 482.865C63.4496 482.369 63.8728 482 64.3729 482H65.0868C65.604 482 66.0359 482.394 66.0827 482.909L66.9226 492.148C66.9672 492.639 67.3634 493.022 67.854 493.064C72.1391 493.433 74.503 494.446 76.9072 498.454C77.2287 498.989 77.95 499.132 78.5086 498.852C80.5648 497.822 82.975 498.234 84.4255 500.087C84.7845 500.546 85.4251 500.739 85.9529 500.493C90.7305 498.261 96 500.378 96 507.5C96 515.1 75 516 64.5 515.5C54.5 515.5 32 516 32 507C32 503.136 36.6439 498.484 43.2932 502.09C43.7107 502.316 44.2313 502.248 44.5745 501.919C46.3967 500.176 47.8499 499.793 50.1999 500.303C50.6675 500.404 51.1524 500.188 51.3715 499.763C53.5857 495.465 55.567 493.462 61.1635 493.049C61.6456 493.013 62.0475 492.652 62.1128 492.173Z" fill="white"/>
<ellipse opacity="0.4" cx="66.5" cy="513" rx="41.5" ry="5" stroke="white" stroke-linecap="round" stroke-dasharray="0.5 2"/>
<ellipse opacity="0.2" cx="66.5" cy="513" rx="49.5" ry="6" stroke="white" stroke-linecap="round" stroke-dasharray="0.5 2"/>
<ellipse opacity="0.1" cx="67" cy="513" rx="66" ry="8" stroke="white" stroke-linecap="round" stroke-dasharray="0.5 2"/>
<path d="M59 453.947C59 448.329 63.5002 443 64.5 443C65.4998 443 70 447.338 70 453.947V477.5H59V453.947Z" fill="white"/>
<path d="M56.727 459.945C57.291 459.081 58.0998 458.56 58.4337 458.408L58.2727 481.616C57.1761 482.321 54.9458 483.725 54.7974 483.706C54.6119 483.682 53.7215 481.811 53.9688 479.89C54.2162 477.97 53.9813 466.619 54.2658 465.874C54.5503 465.13 56.022 461.025 56.727 459.945Z" fill="white"/>
<path d="M72.4419 460.067C71.8973 459.213 71.1027 458.709 70.7735 458.563L70.4983 481.834C71.5756 482.516 73.7671 483.875 73.9151 483.853C74.1 483.825 75.0206 481.928 74.8106 480.008C74.6006 478.088 75.0471 466.699 74.7782 465.959C74.5093 465.219 73.1227 461.135 72.4419 460.067Z" fill="white"/>
<path d="M73.8962 482L71.3405 482L71.3405 483.334L71.9354 484.777L70.7032 486.766L74.6807 486.766L73.3962 484.777L73.8962 483.334L73.8962 482Z" fill="white" stroke="#000034" stroke-width="0.5"/>
<path d="M57.4997 482L54.944 482L54.944 483.335L55.5389 484.778L54.3068 486.766L58.2842 486.766L56.9997 484.778L57.4997 483.335L57.4997 482Z" fill="white" stroke="#000034" stroke-width="0.5"/>
<path d="M60.09 468.325C60.678 466.981 62.4 451 64.395 451C66.39 451 68.427 466.603 68.595 467.695C68.805 469.06 73.425 473.365 74.055 473.89C74.685 474.415 75 475.885 75 476.2V477.775L67.965 479.14L64.605 479.245H63.975L61.035 479.14L54.21 478.09C54.14 477.775 54 477.061 54 476.725C54 476.305 54.42 474.835 54.735 474.415C55.05 473.995 59.355 470.005 60.09 468.325Z" fill="white" stroke="#000034" stroke-width="0.5"/>
<path d="M61.2461 480.82L61.3511 479.14C61.3161 478.195 61.3721 476.095 61.8761 475.255C62.3801 474.415 63.3461 474.835 63.7661 475.15L64.5011 474.73L65.2361 475.15C65.5161 474.905 66.2441 474.352 66.9161 474.94C67.5881 475.528 67.9661 477.985 68.0711 479.14V480.82L67.2311 480.925L67.1261 481.975L64.1861 482.185L62.0861 481.975V480.925L61.2461 480.82Z" fill="white" stroke="#000034" stroke-width="0.5"/>
<path d="M64.5 482V475" stroke="#000034" stroke-width="0.5"/>
<path d="M62.6406 456.918H63.2706L63.5856 456.183H65.2656L65.7906 456.918H66.2106L66.1056 455.973L64.5306 455.133L62.7456 455.973L62.6406 456.918Z" fill="#000034"/>
<path d="M343.665 214.168C349.037 212.524 355.449 215.269 355.742 216.225C356.034 217.181 353.203 222.753 346.882 224.687L324.36 231.576L321.142 221.058L343.665 214.168Z" fill="white"/>
<path d="M326.034 206.246C327.065 206.296 327.923 206.73 328.223 206.941L308.121 218.541C306.959 217.951 304.619 216.738 304.561 216.6C304.488 216.428 305.652 214.713 307.433 213.955C309.215 213.198 318.888 207.253 319.674 207.122C320.46 206.991 324.745 206.185 326.034 206.246Z" fill="white"/>
<path d="M340.385 240.92C341.202 240.322 341.655 239.497 341.778 239.159L318.538 240.374C317.926 241.493 316.71 243.767 316.742 243.913C316.782 244.096 318.733 244.893 320.636 244.561C322.539 244.228 333.933 243.945 334.655 243.629C335.376 243.313 339.363 241.668 340.385 240.92Z" fill="white"/>
<path d="M318.59 243.776L318.427 241.225L317.095 241.311L315.693 241.997L313.629 240.894L313.884 244.864L315.786 243.455L317.258 243.861L318.59 243.776Z" fill="white" stroke="#000034" stroke-width="0.5"/>
<path d="M307.4 218.069L306.107 215.864L304.956 216.539L304.012 217.782L301.673 217.725L303.685 221.157L304.751 219.042L306.248 218.744L307.4 218.069Z" fill="white" stroke="#000034" stroke-width="0.5"/>
<path d="M330.236 219.416C331.693 219.585 347.479 216.557 348.062 218.465C348.646 220.372 334.321 226.885 333.326 227.365C332.082 227.965 329.317 233.642 328.999 234.398C328.682 235.154 327.368 235.885 327.067 235.978L325.561 236.438L322.198 230.11L321.114 226.928L320.93 226.326L320.17 223.483L319.178 216.65C319.459 216.491 320.1 216.148 320.422 216.05C320.823 215.927 322.352 215.899 322.846 216.077C323.34 216.255 328.414 219.205 330.236 219.416Z" fill="white" stroke="#000034" stroke-width="0.5"/>
<path d="M318.625 224.175L320.262 223.784C321.156 223.475 323.18 222.914 324.131 223.15C325.082 223.386 324.963 224.433 324.784 224.927L325.401 225.507L325.214 226.332C325.531 226.528 326.272 227.063 325.907 227.877C325.541 228.692 323.302 229.772 322.228 230.21L320.622 230.702L320.276 229.929L319.241 230.136L318.18 227.386L317.766 225.317L318.771 225.009L318.625 224.175Z" fill="white" stroke="#000034" stroke-width="0.5"/>
<path d="M318.449 227.633L325.143 225.585" stroke="#000034" stroke-width="0.5"/>
<path d="M341.89 218.519L342.075 219.122L342.87 219.208L343.361 220.814L342.812 221.531L342.935 221.933L343.808 221.556L344.15 219.804L342.825 218.343L341.89 218.519Z" fill="#000034"/>
<path d="M553.521 216.813C554.469 216.457 555.127 215.784 555.337 215.492L532.628 210.404C531.738 211.317 529.954 213.18 529.946 213.329C529.935 213.516 531.599 214.809 533.521 215.001C535.443 215.193 546.493 217.989 547.273 217.879C548.053 217.769 552.335 217.258 553.521 216.813Z" fill="white"/>
<path d="M554.247 213.672C554.969 214.352 555.298 215.183 555.373 215.514L532.605 210.696C532.16 209.57 531.283 207.285 531.335 207.156C531.4 206.994 533.44 206.572 535.271 207.18C537.102 207.789 548.309 209.864 548.976 210.269C549.643 210.674 553.345 212.822 554.247 213.672Z" fill="white"/>
<path d="M532.503 212.718L533.31 209.336L531.983 209.118L530.503 209.336L528.782 207.717L527.503 212.218L529.878 211.595L531.149 212.49L532.503 212.718Z" fill="white" stroke="#000034" stroke-width="0.5"/>
<path d="M533.462 180.234C534.864 180.666 550.937 180.556 551.165 182.538C551.392 184.52 536.123 188.321 535.057 188.612C533.725 188.976 529.974 194.057 529.524 194.742C529.074 195.428 527.65 195.909 527.337 195.944L525.772 196.124L523.615 189.29L523.127 185.964L523.056 185.338L522.825 182.405L523.091 175.505C523.396 175.4 524.089 175.179 524.423 175.141C524.84 175.093 526.348 175.343 526.802 175.608C527.255 175.873 531.709 179.696 533.462 180.234Z" fill="white" stroke="#000034" stroke-width="0.5"/>
<path d="M521.18 182.805L522.861 182.718C523.796 182.576 525.888 182.392 526.78 182.797C527.672 183.202 527.365 184.21 527.1 184.663L527.601 185.345L527.267 186.123C527.543 186.373 528.175 187.034 527.667 187.768C527.16 188.503 524.762 189.158 523.626 189.394L521.957 189.586L521.757 188.763L520.702 188.778L520.159 185.881L520.128 183.771L521.171 183.652L521.18 182.805Z" fill="white" stroke="#000034" stroke-width="0.5"/>
<path d="M520.378 186.173L527.332 185.376" stroke="#000034" stroke-width="0.5"/>
<path d="M545.086 181.47L545.158 182.096L545.924 182.325L546.115 183.994L545.445 184.599L545.493 185.017L546.42 184.805L547.075 183.144L546.037 181.467L545.086 181.47Z" fill="#000034"/>
<path d="M699.457 164.001C700.858 164.434 716.932 164.347 717.156 166.329C717.381 168.311 702.106 172.091 701.04 172.381C699.707 172.743 695.949 177.818 695.498 178.503C695.048 179.188 693.622 179.667 693.309 179.702L691.744 179.879L689.596 173.043L689.114 169.716L689.043 169.09L688.817 166.157L689.092 159.257C689.397 159.152 690.091 158.933 690.425 158.895C690.842 158.847 692.35 159.099 692.803 159.365C693.256 159.631 697.705 163.46 699.457 164.001Z" fill="white" stroke="#000034" stroke-width="0.5"/>
<path d="M687.171 166.554L688.852 166.47C689.787 166.329 691.88 166.148 692.772 166.554C693.663 166.96 693.354 167.968 693.089 168.42L693.589 169.103L693.254 169.881C693.529 170.132 694.16 170.793 693.652 171.527C693.143 172.261 690.744 172.913 689.608 173.147L687.939 173.336L687.74 172.513L686.685 172.527L686.145 169.629L686.118 167.519L687.161 167.401L687.171 166.554Z" fill="white" stroke="#000034" stroke-width="0.5"/>
<path d="M686.365 169.921L693.32 169.134" stroke="#000034" stroke-width="0.5"/>
<path d="M711.078 165.253L711.149 165.879L711.915 166.109L712.104 167.778L711.432 168.383L711.48 168.8L712.407 168.589L713.064 166.93L712.029 165.251L711.078 165.253Z" fill="#000034"/>
<circle cx="671" cy="171" r="3" fill="white"/>
<circle cx="417" cy="204" r="3" fill="white"/>
<circle cx="261" cy="244" r="3" fill="white"/>
<defs>
<linearGradient id="paint0_linear_923_1837" x1="634" y1="176" x2="737.5" y2="167" gradientUnits="userSpaceOnUse">
<stop stop-color="white"/>
<stop offset="1" stop-color="white" stop-opacity="0"/>
</linearGradient>
</defs>
</svg>
