<svg width="352" height="491" viewBox="0 0 352 491" fill="none" xmlns="http://www.w3.org/2000/svg">
<path d="M351.5 83C252 118.5 185.259 228.5 170 409" stroke="url(#paint0_linear_924_1838)"/>
<path d="M167.113 461.173L168.382 451.865C168.45 451.369 168.873 451 169.373 451H170.087C170.604 451 171.036 451.394 171.083 451.909L171.923 461.148C171.967 461.639 172.363 462.022 172.854 462.064C177.139 462.433 179.503 463.446 181.907 467.454C182.229 467.989 182.95 468.132 183.509 467.852C185.565 466.822 187.975 467.234 189.426 469.087C189.785 469.546 190.425 469.739 190.953 469.493C195.731 467.261 201 469.378 201 476.5C201 484.1 180 485 169.5 484.5C159.5 484.5 137 485 137 476C137 472.136 141.644 467.484 148.293 471.09C148.711 471.316 149.231 471.248 149.575 470.919C151.397 469.176 152.85 468.793 155.2 469.303C155.667 469.404 156.152 469.188 156.372 468.763C158.586 464.465 160.567 462.462 166.163 462.049C166.646 462.013 167.047 461.652 167.113 461.173Z" fill="white"/>
<ellipse opacity="0.4" cx="171.5" cy="482" rx="41.5" ry="5" stroke="white" stroke-linecap="round" stroke-dasharray="0.5 2"/>
<ellipse opacity="0.2" cx="171.5" cy="482" rx="49.5" ry="6" stroke="white" stroke-linecap="round" stroke-dasharray="0.5 2"/>
<ellipse opacity="0.1" cx="172" cy="482" rx="66" ry="8" stroke="white" stroke-linecap="round" stroke-dasharray="0.5 2"/>
<path d="M164 422.947C164 417.329 168.5 412 169.5 412C170.5 412 175 416.338 175 422.947V446.5H164V422.947Z" fill="white"/>
<path d="M161.727 428.945C162.291 428.081 163.1 427.56 163.434 427.408L163.273 450.616C162.176 451.321 159.946 452.725 159.797 452.706C159.612 452.682 158.721 450.811 158.969 448.89C159.216 446.97 158.981 435.619 159.266 434.874C159.55 434.13 161.022 430.025 161.727 428.945Z" fill="white"/>
<path d="M177.442 429.067C176.897 428.213 176.103 427.709 175.774 427.563L175.498 450.834C176.576 451.516 178.767 452.875 178.915 452.853C179.1 452.825 180.021 450.928 179.811 449.008C179.601 447.088 180.047 435.699 179.778 434.959C179.509 434.219 178.123 430.135 177.442 429.067Z" fill="white"/>
<path d="M178.896 451L176.341 451L176.341 452.334L176.935 453.777L175.703 455.766L179.681 455.766L178.396 453.777L178.896 452.334L178.896 451Z" fill="white" stroke="#000034" stroke-width="0.5"/>
<path d="M162.5 451L159.944 451L159.944 452.335L160.539 453.778L159.307 455.766L163.284 455.766L162 453.778L162.5 452.335L162.5 451Z" fill="white" stroke="#000034" stroke-width="0.5"/>
<path d="M165.09 437.325C165.678 435.981 167.4 420 169.395 420C171.39 420 173.427 435.603 173.595 436.695C173.805 438.06 178.425 442.365 179.055 442.89C179.685 443.415 180 444.885 180 445.2V446.775L172.965 448.14L169.605 448.245H168.975L166.035 448.14L159.21 447.09C159.14 446.775 159 446.061 159 445.725C159 445.305 159.42 443.835 159.735 443.415C160.05 442.995 164.355 439.005 165.09 437.325Z" fill="white" stroke="#000034" stroke-width="0.5"/>
<path d="M166.246 449.82L166.351 448.14C166.316 447.195 166.372 445.095 166.876 444.255C167.38 443.415 168.346 443.835 168.766 444.15L169.501 443.73L170.236 444.15C170.516 443.905 171.244 443.352 171.916 443.94C172.588 444.528 172.966 446.985 173.071 448.14V449.82L172.231 449.925L172.126 450.975L169.186 451.185L167.086 450.975V449.925L166.246 449.82Z" fill="white" stroke="#000034" stroke-width="0.5"/>
<path d="M169.5 451V444" stroke="#000034" stroke-width="0.5"/>
<path d="M167.641 425.918H168.271L168.586 425.183H170.266L170.791 425.918H171.211L171.106 424.973L169.531 424.133L167.746 424.973L167.641 425.918Z" fill="#000034"/>
<path d="M7.648 289.416C14.144 289.416 19.552 280.776 19.552 273.416C19.552 268.872 17.44 265.544 13.472 265.544C6.976 265.544 1.568 274.152 1.568 281.544C1.568 286.088 3.68 289.416 7.648 289.416ZM7.84 288.744C6.208 288.744 5.12 286.792 5.12 283.4C5.12 277.736 8.832 266.216 13.312 266.216C14.912 266.216 16.032 268.168 16.032 271.56C16.032 277.224 12.288 288.744 7.84 288.744ZM32.9095 289L33.0055 288.552C32.2375 288.456 31.2135 288.072 31.7575 285.96L36.8455 265.032L30.0615 269.352L29.9015 269.896C31.5655 269.064 32.4295 269.736 31.9495 271.816L28.4935 285.928C27.9815 288.072 26.7975 288.456 25.8375 288.552L25.7415 289H32.9095Z" fill="#FF267E"/>
<path d="M2 312H124.216L177 354" stroke="white" stroke-dasharray="1 4"/>
<circle cx="177" cy="354" r="3" fill="white"/>
<circle cx="216" cy="218" r="3" fill="white"/>
<circle cx="295" cy="114" r="3" fill="white"/>
<path d="M43.648 147.416C50.144 147.416 55.552 138.776 55.552 131.416C55.552 126.872 53.44 123.544 49.472 123.544C42.976 123.544 37.568 132.152 37.568 139.544C37.568 144.088 39.68 147.416 43.648 147.416ZM43.84 146.744C42.208 146.744 41.12 144.792 41.12 141.4C41.12 135.736 44.832 124.216 49.312 124.216C50.912 124.216 52.032 126.168 52.032 129.56C52.032 135.224 48.288 146.744 43.84 146.744ZM79.9495 128.536C80.2055 124.984 77.1015 123.544 74.1255 123.544C68.7495 123.544 65.7415 128.248 65.6775 130.296C65.5815 131.704 66.2215 132.632 67.3095 132.632C68.4935 132.632 69.6135 131.576 69.6455 130.552C69.6775 129.592 68.8135 128.664 68.9095 127.48C69.0055 125.88 71.2135 124.088 73.6775 124.088C75.7575 124.088 76.8775 125.432 76.6535 128.184C76.4935 131.256 73.5815 133.944 70.5735 136.952L60.4615 147H70.5415C73.4535 147 74.1575 147.192 74.8615 147.448L78.2215 140.952H77.6775C76.5575 142.744 74.7655 144.056 71.3095 144.056H64.2695L71.7255 138.552C75.7575 135.608 79.7575 132.984 79.9495 128.536Z" fill="#FF267E"/>
<path d="M37 167H172.478L216 219" stroke="white" stroke-dasharray="1 4"/>
<path d="M113.648 29.416C120.144 29.416 125.552 20.776 125.552 13.416C125.552 8.872 123.44 5.544 119.472 5.544C112.976 5.544 107.568 14.152 107.568 21.544C107.568 26.088 109.68 29.416 113.648 29.416ZM113.84 28.744C112.208 28.744 111.12 26.792 111.12 23.4C111.12 17.736 114.832 6.216 119.312 6.216C120.912 6.216 122.032 8.168 122.032 11.56C122.032 17.224 118.288 28.744 113.84 28.744ZM149.598 9.608C149.598 6.728 146.974 5.544 143.582 5.544C139.454 5.544 136.286 8.872 136.286 11.176C136.286 12.36 136.862 12.968 137.918 12.968C138.942 12.968 139.998 12.168 139.998 11.016C139.998 10.376 139.55 9.864 139.55 9.16C139.55 7.528 141.054 6.088 143.134 6.088C145.022 6.088 146.27 7.272 146.27 9.192C146.27 13.192 142.59 15.624 137.502 17.384L137.598 17.8C138.302 17.608 139.198 17.512 139.806 17.512C142.75 17.512 144.286 19.272 144.318 21.608C144.382 25.416 141.886 28.84 138.462 28.84C136.67 28.84 135.39 27.88 135.39 26.728C135.39 25.288 136.862 24.776 136.862 23.304C136.862 22.376 136.126 21.928 135.262 21.928C133.79 21.928 132.542 23.688 132.542 25.48C132.542 27.336 134.078 29.416 138.302 29.416C143.166 29.416 147.902 26.504 147.902 21.384C147.902 18.888 145.95 16.84 141.982 16.84C141.534 16.84 141.022 16.872 140.51 16.936C144.99 15.784 149.598 13.288 149.598 9.608Z" fill="#FF267E"/>
<path d="M109 48H243.767L295 114" stroke="white" stroke-dasharray="1 4"/>
<path d="M187.092 280.067C188.901 274.748 194.878 271.152 195.824 271.474C196.771 271.796 199.634 277.352 197.506 283.609L189.922 305.907L179.508 302.365L187.092 280.067Z" fill="white"/>
<path d="M170.355 289.734C170.998 288.927 171.853 288.485 172.2 288.365L169.851 311.455C168.693 312.053 166.341 313.241 166.195 313.208C166.012 313.166 165.302 311.219 165.729 309.331C166.157 307.443 166.993 296.119 167.346 295.405C167.7 294.691 169.552 290.743 170.355 289.734Z" fill="white"/>
<path d="M206.873 298.375C206.866 297.362 206.462 296.512 206.26 296.214L193.653 315.776C194.202 316.926 195.336 319.243 195.473 319.302C195.644 319.377 197.432 318.26 198.276 316.522C199.119 314.785 205.553 305.376 205.719 304.607C205.885 303.837 206.882 299.641 206.873 298.375Z" fill="white"/>
<path d="M196.441 317.723L194.277 316.364L193.567 317.495L193.304 319.033L191.203 320.062L194.571 322.177L194.541 319.81L195.732 318.854L196.441 317.723Z" fill="white" stroke="#000034" stroke-width="0.5"/>
<path d="M169.046 311.764L166.501 311.523L166.375 312.852L166.832 314.344L165.417 316.208L169.377 316.583L168.286 314.482L168.92 313.093L169.046 311.764Z" fill="white" stroke="#000034" stroke-width="0.5"/>
<path d="M183.495 294.03C184.485 292.947 191.261 278.371 193.15 279.014C195.039 279.656 191.943 295.084 191.75 296.172C191.509 297.532 194.497 303.095 194.924 303.795C195.352 304.495 195.177 305.988 195.075 306.287L194.568 307.778L187.468 306.805L184.253 305.822L183.657 305.619L180.907 304.573L174.784 301.381C174.819 301.06 174.916 300.339 175.025 300.021C175.16 299.624 176.031 298.367 176.464 298.071C176.898 297.775 182.258 295.384 183.495 294.03Z" fill="white" stroke="#000034" stroke-width="0.5"/>
<path d="M180.565 306.231L181.205 304.674C181.477 303.768 182.206 301.798 182.954 301.165C183.701 300.532 184.481 301.241 184.777 301.674L185.608 301.513L186.168 302.148C186.512 302.006 187.38 301.717 187.827 302.49C188.273 303.263 187.84 305.711 187.568 306.838L187.027 308.429L186.197 308.258L185.76 309.218L182.909 308.47L180.988 307.595L181.327 306.601L180.565 306.231Z" fill="white" stroke="#000034" stroke-width="0.5"/>
<path d="M183.267 308.396L185.521 301.769" stroke="#000034" stroke-width="0.5"/>
<path d="M189.583 284.052L190.18 284.255L190.715 283.66L192.305 284.201L192.566 285.066L192.963 285.201L193.168 284.273L191.948 282.97L189.987 283.191L189.583 284.052Z" fill="#000034"/>
<path d="M317.595 92.7034C319.04 92.4544 333.329 85.094 334.428 86.7595C335.526 88.425 323.622 98.7153 322.803 99.4567C321.779 100.383 320.728 106.61 320.637 107.425C320.545 108.24 319.492 109.313 319.229 109.486L317.914 110.353L312.901 105.232L310.964 102.484L310.617 101.958L309.086 99.4462L306.205 93.1705C306.43 92.9387 306.949 92.4287 307.229 92.2437C307.58 92.0125 309.038 91.5539 309.562 91.5856C310.086 91.6174 315.787 93.0147 317.595 92.7034Z" fill="white" stroke="#000034" stroke-width="0.5"/>
<path d="M307.799 100.546L309.259 99.7088C310.029 99.1594 311.813 98.05 312.791 98.0083C313.77 97.9666 313.951 99.0043 313.92 99.5283L314.675 99.9107L314.729 100.756C315.087 100.854 315.95 101.158 315.829 102.042C315.708 102.927 313.865 104.595 312.959 105.319L311.556 106.244L311.006 105.6L310.072 106.091L308.278 103.752L307.297 101.883L308.174 101.305L307.799 100.546Z" fill="white" stroke="#000034" stroke-width="0.5"/>
<path d="M308.605 103.913L314.449 100.06" stroke="#000034" stroke-width="0.5"/>
<path d="M328.522 88.5537L328.868 89.0797L329.655 88.938L330.58 90.3405L330.256 91.1834L330.487 91.534L331.218 90.9261L331.052 89.1489L329.368 88.1211L328.522 88.5537Z" fill="#000034"/>
<path d="M282.627 173.143C282.982 172.194 282.906 171.256 282.824 170.906L264.074 184.69C264.177 185.961 264.41 188.53 264.517 188.634C264.651 188.765 266.72 188.359 268.127 187.036C269.534 185.712 278.899 179.215 279.328 178.555C279.757 177.895 282.184 174.33 282.627 173.143Z" fill="white"/>
<path d="M280.736 170.532C281.723 170.435 282.566 170.732 282.863 170.893L264.278 184.899C263.137 184.495 260.838 183.656 260.775 183.532C260.696 183.377 261.717 181.561 263.378 180.58C265.04 179.599 273.964 172.51 274.708 172.273C275.452 172.036 279.502 170.655 280.736 170.532Z" fill="white"/>
<path d="M265.737 186.304L263.716 183.475L262.681 184.332L261.873 185.591L259.522 185.827L262.076 189.746L263.166 187.546L264.676 187.176L265.737 186.304Z" fill="white" stroke="#000034" stroke-width="0.5"/>
<path d="M241.869 164.249C243.115 163.474 253.588 151.281 255.232 152.411C256.876 153.541 249.715 167.553 249.235 168.548C248.634 169.792 250.003 175.956 250.224 176.746C250.446 177.536 249.873 178.925 249.694 179.185L248.802 180.483L242.232 177.622L239.403 175.805L238.884 175.448L236.521 173.696L231.492 168.964C231.613 168.665 231.902 167.997 232.092 167.72C232.33 167.374 233.509 166.401 234.006 166.233C234.504 166.066 240.312 165.217 241.869 164.249Z" fill="white" stroke="#000034" stroke-width="0.5"/>
<path d="M235.743 175.199L236.782 173.874C237.288 173.076 238.524 171.377 239.415 170.97C240.306 170.563 240.865 171.457 241.032 171.954L241.876 172.025L242.243 172.787C242.613 172.744 243.526 172.701 243.747 173.566C243.967 174.431 242.887 176.67 242.319 177.681L241.367 179.066L240.616 178.676L239.934 179.482L237.393 177.989L235.781 176.627L236.376 175.761L235.743 175.199Z" fill="white" stroke="#000034" stroke-width="0.5"/>
<path d="M237.755 178.016L241.721 172.247" stroke="#000034" stroke-width="0.5"/>
<path d="M250.434 156.294L250.953 156.651L251.629 156.224L253.014 157.176L253.03 158.079L253.376 158.317L253.825 157.478L253.003 155.894L251.056 155.575L250.434 156.294Z" fill="#000034"/>
<defs>
<linearGradient id="paint0_linear_924_1838" x1="267.5" y1="140" x2="358.7" y2="97.3151" gradientUnits="userSpaceOnUse">
<stop stop-color="white"/>
<stop offset="1" stop-color="white" stop-opacity="0"/>
</linearGradient>
</defs>
</svg>
