<svg width="271" height="118" viewBox="0 0 271 118" fill="none" xmlns="http://www.w3.org/2000/svg">
<path d="M271 0H0V117.433H65.1314V58.8112H271V0Z" fill="#FF267E"/>
<path d="M46.0864 28.3654H26.2803V22.6923H50.2761V14.75H14.8538V44.061H26.2803V36.1187H46.0864V28.3654Z" fill="#000055"/>
<path d="M109.125 34.2276L98.6503 14.75H85.3193L102.459 44.061H115.6L132.549 14.75H119.599L109.125 34.2276Z" fill="#000055"/>
<path d="M169.494 29.1219C172.16 28.1763 173.874 25.5289 173.874 22.8814C173.874 18.1538 169.685 14.75 161.686 14.75H135.595V44.061H162.067C170.637 44.061 174.636 40.6572 174.636 35.7405C174.636 33.093 173.113 30.4456 169.494 29.1219ZM146.832 21.7468H159.591C160.734 21.5577 161.877 22.5032 162.067 23.8269C162.257 24.9616 161.305 26.0962 159.972 26.2853C159.782 26.2853 159.782 26.2853 159.591 26.2853H146.832V21.7468ZM160.543 37.0642H146.832V32.5257H160.543C161.686 32.3366 162.829 33.2821 163.019 34.6058C163.21 35.7405 162.257 36.8751 160.924 37.0642C160.924 37.0642 160.734 37.0642 160.543 37.0642Z" fill="#000055"/>
<path d="M191.585 32.5257H211.392V26.2853H191.585V22.6923H213.486V14.75H180.159V44.061H214.058V36.1187H191.585V32.5257Z" fill="#000055"/>
<path d="M218.819 14.75V22.6923H231.769V44.061H243.386V22.6923H256.146V14.75H218.819Z" fill="#000055"/>
<path d="M63.6084 14.75L46.4685 44.061H58.6568L60.9422 39.7117H79.2247L81.51 44.061H94.2696L77.1298 14.75H63.6084ZM65.1319 32.1475L70.0834 22.6923L75.0349 32.1475H65.1319Z" fill="#000055"/>
<path d="M10.2832 82.6383L19.9958 99.6576H32.565L22.8524 82.6383H10.2832Z" fill="#000055"/>
<path d="M42.2787 82.6383L32.5662 99.6576H44.9449L54.848 82.6383H42.2787Z" fill="#000055"/>
<path d="M32.5654 65.6185L22.8528 82.6378H42.2779L32.5654 65.6185Z" fill="#000055"/>
</svg>
