<svg width="54" height="57" viewBox="0 0 54 57" fill="none" xmlns="http://www.w3.org/2000/svg">
<g clip-path="url(#clip0_33_12462)">
<path fill-rule="evenodd" clip-rule="evenodd" d="M43.0594 19.4904C40.4901 20.0915 37.7753 20.638 35.2195 21.1992C32.3221 21.838 29.4231 22.473 26.5224 23.1041C20.6943 24.3697 14.8792 25.6503 9.02772 26.765C8.28319 26.9064 15.767 51.5752 16.1578 51.4641C26.5834 49.2568 38.4093 46.301 49.0751 43.5878C49.1734 43.4913 46.9326 32.7018 46.6588 31.3291C45.9691 27.8566 45.1512 24.2982 44.3011 20.976C43.9607 19.7102 43.9552 19.2813 43.0594 19.4904Z" fill="#FA7F6C"/>
<path fill-rule="evenodd" clip-rule="evenodd" d="M47.1619 44.0533L46.9946 43.2994L48.8926 42.8121C48.8529 42.5585 48.7947 42.2615 48.7271 41.9342L46.786 42.3919C46.3957 40.7046 45.9922 39.0183 45.5756 37.3331L47.7633 36.8084L47.6297 36.0539L45.3924 36.5894C44.9634 34.8752 44.5237 33.1621 44.0732 31.4502C44.9003 31.2394 45.725 31.0229 46.5497 30.8063L46.3985 30.0661L43.8694 30.6741C43.4191 28.9735 42.9642 27.2726 42.5046 25.5714L45.2548 24.8524L45.0399 23.9544L42.2737 24.6357L40.988 19.9751L40.0549 20.1761L41.0768 24.9349L35.3656 26.3323C34.9323 24.7089 34.4944 23.0909 34.0521 21.4782L33.1427 21.6794C33.5446 23.3138 33.9417 24.948 34.3343 26.5818L29.0546 27.844C28.6473 26.1753 28.23 24.5098 27.8027 22.8473L27.0228 23.0175C27.4222 24.6941 27.8201 26.3701 28.2167 28.0456C26.4485 28.4653 24.6809 28.8812 22.9141 29.2935C22.4684 27.5932 22.0028 25.8991 21.5172 24.2112L20.746 24.3777C21.1806 26.0735 21.6042 27.7752 22.0167 29.4827C20.2506 29.8969 18.4831 30.3049 16.714 30.7067C16.2377 28.9715 15.751 27.2384 15.2539 25.5075L14.3171 25.6998C14.7789 27.4434 15.2349 29.1895 15.6851 30.9381L10.17 32.1974L10.4411 33.188C12.2764 32.7877 14.113 32.3824 15.9508 31.972C16.353 33.5378 16.75 35.1024 17.142 36.6657C15.344 37.0365 13.5427 37.3972 11.7384 37.7478L11.9988 38.6333C13.7859 38.274 15.5733 37.9101 17.361 37.5415C17.7811 39.2298 18.1962 40.9168 18.6062 42.6025C16.915 42.969 15.2194 43.3305 13.5193 43.687L13.7843 44.5432L18.8109 43.4365C19.228 45.1443 19.6374 46.8554 20.0392 48.5697L15.4293 49.6502C15.5836 50.1016 15.7182 50.4826 15.8285 50.7747C17.3289 50.4436 18.8258 50.1071 20.3193 49.7653L20.4964 50.5184L21.5507 50.2831L21.381 49.5234C23.0024 49.1523 24.6227 48.776 26.242 48.3945L26.3895 49.1739L27.3153 48.9555L27.1632 48.1814C28.9465 47.7599 30.7282 47.3345 32.5082 46.9052L32.6701 47.6786L33.5922 47.4515L33.4188 46.683C35.2226 46.246 37.0249 45.805 38.8254 45.3602L39.0079 46.1179L40.209 45.8203L40.0364 45.0618C41.8353 44.6131 43.6315 44.1633 45.425 43.7123L45.6206 44.4611L47.1779 44.067L47.1619 44.0533ZM21.1043 48.3196C20.7173 46.6081 20.3254 44.885 19.9108 43.1886L24.9489 42.077C25.3137 43.7842 25.6653 45.4924 26.0038 47.2017L21.108 48.3283L21.1043 48.3196ZM26.9284 46.9804C26.5841 45.2736 26.2313 43.5681 25.8701 41.8639L31.1407 40.6844C31.5178 42.3727 31.8892 44.0634 32.2549 45.7566L26.9206 46.994L26.9284 46.9804ZM33.149 45.5516L32.0163 40.4838C33.8004 40.0802 35.5833 39.6737 37.365 39.2643C37.7652 40.9428 38.1667 42.6219 38.5696 44.3015L33.149 45.5516ZM39.785 44.0218C39.401 42.3387 39.0038 40.659 38.5932 38.9826C40.3732 38.5693 42.1521 38.1508 43.93 37.727C44.3304 39.4168 44.7444 41.0986 45.1719 42.7723L39.7887 44.0305L39.785 44.0218ZM19.7309 42.3648C19.3228 40.6782 18.9051 38.9957 18.4778 37.3173C20.2014 36.9577 21.9248 36.5924 23.6481 36.2214C24.0401 37.8966 24.4183 39.5741 24.7829 41.2541C23.1006 41.6258 21.4175 41.998 19.7333 42.3706L19.7309 42.3648ZM25.7016 41.0592C25.3404 39.387 24.9677 37.7093 24.5837 36.0262C26.3328 35.6466 28.0832 35.2596 29.835 34.8651C30.2212 36.5267 30.6026 38.1904 30.9792 39.8561C29.2252 40.2561 27.4692 40.6512 25.7111 41.0415L25.7016 41.0592ZM31.824 39.6789C31.4474 38.0132 31.066 36.3496 30.6798 34.6879C32.447 34.287 34.2136 33.8794 35.9796 33.4652L37.1612 38.4643L31.8183 39.6814L31.824 39.6789ZM38.4017 38.1876C37.9939 36.5123 37.576 34.8401 37.1482 33.1711C38.9614 32.7346 40.771 32.2871 42.5771 31.8285C42.9583 33.5425 43.3457 35.2549 43.7393 36.9659L38.4017 38.1876ZM18.2486 36.4733C17.8448 34.9036 17.4306 33.336 17.006 31.7705C18.7663 31.3747 20.5252 30.9704 22.2828 30.5575C22.6764 32.1567 23.0614 33.7595 23.4378 35.366C21.7095 35.7413 19.979 36.1085 18.2461 36.4675L18.2486 36.4733ZM24.3693 35.1691C23.9874 33.5604 23.5913 31.9554 23.181 30.3542C24.9451 29.9409 26.7059 29.5221 28.4631 29.0979C28.8499 30.7342 29.2353 32.3699 29.6193 34.0051C27.8714 34.3979 26.1213 34.7859 24.3693 35.1691ZM30.4748 33.8131C30.0902 32.1713 29.6999 30.532 29.3039 28.8951C31.0611 28.4709 32.8175 28.0392 34.5729 27.5998C34.9706 29.2566 35.3696 30.9219 35.7701 32.5957C34.0024 33.006 32.2377 33.4128 30.476 33.816L30.4748 33.8131ZM36.9255 32.3106C36.4966 30.6443 36.0624 28.9814 35.6227 27.3219C37.5102 26.8471 39.3941 26.3668 41.2747 25.8812C41.6439 27.5934 42.0174 29.3049 42.395 31.0158C40.569 31.4486 38.7458 31.8802 36.9255 32.3106Z" fill="#EB5A32"/>
<path fill-rule="evenodd" clip-rule="evenodd" d="M40.4128 20.1729C39.5187 17.8346 35.8529 18.1721 33.9575 18.3776C32.1971 18.5664 30.468 18.9738 28.8097 19.5906C30.0864 18.3836 31.2696 17.0804 32.3491 15.6922C33.1582 14.6231 33.9779 12.947 32.4836 12.0102C31.1886 11.1907 29.9024 11.6716 28.7087 12.7705C29.3098 10.2356 29.1773 8.27583 27.2474 8.42411C25.6808 8.54828 24.7454 10.8553 24.2633 12.0869C24.2489 12.093 24.2509 12.1297 24.2414 12.1475C24.2072 11.7068 24.1815 11.2624 24.1402 10.8213C23.998 9.28654 23.9939 6.69369 22.156 6.28268C22.0553 6.24979 21.9479 6.24415 21.8446 6.26634C21.7414 6.28853 21.646 6.33776 21.568 6.40905C19.8554 8.43673 20.0273 11.441 20.8397 14.4745C20.4242 13.7678 20.0133 13.0796 19.6311 12.4272C18.8512 11.1016 17.462 8.74067 15.6573 10.1434C13.989 11.4437 15.3786 14.4616 16.131 15.8982C17.1433 17.7635 18.4618 19.4446 20.0304 20.8698C18.5289 20.0441 16.9387 19.3948 15.2913 18.9348C13.7283 18.5235 10.4361 17.6138 9.47418 19.5385C8.29427 21.9014 10.7495 22.8788 13.827 23.2428C13.4425 23.4099 13.0729 23.6092 12.7219 23.8386C11.5983 24.5825 9.76281 26.5768 10.5279 28.1312C11.3274 29.7668 14.0309 28.7699 15.1869 28.31C17.6635 27.2722 19.949 25.8267 21.95 24.0324C21.3486 26.2387 19.1293 34.3107 18.633 35.093C18.0578 36.0012 21.8564 37.9521 22.3843 37.2283C22.8509 36.5921 24.2214 26.8643 24.3605 23.8889L24.5258 23.7263C25.6632 26.6219 28.8844 34.7224 29.4611 35.0972C30.1663 35.5509 31.4639 33.6172 31.5163 33.085C31.5584 32.6803 28.0983 26.7281 26.4128 23.853C31.8716 24.1886 41.9626 24.1839 40.4128 20.1729Z" fill="#669EAC"/>
</g>
<defs>
<clipPath id="clip0_33_12462">
<rect width="38" height="45" fill="white" transform="translate(0.719238 15.2129) rotate(-23)"/>
</clipPath>
</defs>
</svg>
