<svg width="1146" height="541" viewBox="0 0 1146 541" fill="none" xmlns="http://www.w3.org/2000/svg">
<path d="M7.648 209.416C14.144 209.416 19.552 200.776 19.552 193.416C19.552 188.872 17.44 185.544 13.472 185.544C6.976 185.544 1.568 194.152 1.568 201.544C1.568 206.088 3.68 209.416 7.648 209.416ZM7.84 208.744C6.208 208.744 5.12 206.792 5.12 203.4C5.12 197.736 8.832 186.216 13.312 186.216C14.912 186.216 16.032 188.168 16.032 191.56C16.032 197.224 12.288 208.744 7.84 208.744ZM32.9095 209L33.0055 208.552C32.2375 208.456 31.2135 208.072 31.7575 205.96L36.8455 185.032L30.0615 189.352L29.9015 189.896C31.5655 189.064 32.4295 189.736 31.9495 191.816L28.4935 205.928C27.9815 208.072 26.7975 208.456 25.8375 208.552L25.7415 209H32.9095Z" fill="#FF267E"/>
<path d="M259.648 101.416C266.144 101.416 271.552 92.776 271.552 85.416C271.552 80.872 269.44 77.544 265.472 77.544C258.976 77.544 253.568 86.152 253.568 93.544C253.568 98.088 255.68 101.416 259.648 101.416ZM259.84 100.744C258.208 100.744 257.12 98.792 257.12 95.4C257.12 89.736 260.832 78.216 265.312 78.216C266.912 78.216 268.032 80.168 268.032 83.56C268.032 89.224 264.288 100.744 259.84 100.744ZM295.95 82.536C296.206 78.984 293.102 77.544 290.126 77.544C284.75 77.544 281.742 82.248 281.678 84.296C281.582 85.704 282.222 86.632 283.31 86.632C284.494 86.632 285.614 85.576 285.646 84.552C285.678 83.592 284.814 82.664 284.91 81.48C285.006 79.88 287.214 78.088 289.678 78.088C291.758 78.088 292.878 79.432 292.654 82.184C292.494 85.256 289.582 87.944 286.574 90.952L276.462 101H286.542C289.454 101 290.158 101.192 290.862 101.448L294.222 94.952H293.678C292.558 96.744 290.766 98.056 287.31 98.056H280.27L287.726 92.552C291.758 89.608 295.758 86.984 295.95 82.536Z" fill="#FF267E"/>
<path d="M746.648 29.416C753.144 29.416 758.552 20.776 758.552 13.416C758.552 8.872 756.44 5.544 752.472 5.544C745.976 5.544 740.568 14.152 740.568 21.544C740.568 26.088 742.68 29.416 746.648 29.416ZM746.84 28.744C745.208 28.744 744.12 26.792 744.12 23.4C744.12 17.736 747.832 6.216 752.312 6.216C753.912 6.216 755.032 8.168 755.032 11.56C755.032 17.224 751.288 28.744 746.84 28.744ZM782.598 9.608C782.598 6.728 779.974 5.544 776.582 5.544C772.454 5.544 769.286 8.872 769.286 11.176C769.286 12.36 769.862 12.968 770.918 12.968C771.942 12.968 772.998 12.168 772.998 11.016C772.998 10.376 772.55 9.864 772.55 9.16C772.55 7.528 774.054 6.088 776.134 6.088C778.022 6.088 779.27 7.272 779.27 9.192C779.27 13.192 775.59 15.624 770.502 17.384L770.598 17.8C771.302 17.608 772.198 17.512 772.806 17.512C775.75 17.512 777.286 19.272 777.318 21.608C777.382 25.416 774.886 28.84 771.462 28.84C769.67 28.84 768.39 27.88 768.39 26.728C768.39 25.288 769.862 24.776 769.862 23.304C769.862 22.376 769.126 21.928 768.262 21.928C766.79 21.928 765.542 23.688 765.542 25.48C765.542 27.336 767.078 29.416 771.302 29.416C776.166 29.416 780.902 26.504 780.902 21.384C780.902 18.888 778.95 16.84 774.982 16.84C774.534 16.84 774.022 16.872 773.51 16.936C777.99 15.784 782.598 13.288 782.598 9.608Z" fill="#FF267E"/>
<path d="M1145.5 148.5C726.5 178.5 179.5 278.5 145 459" stroke="url(#paint0_linear_923_1836)"/>
<path d="M0 232H243.734L349 286" stroke="white" stroke-dasharray="1 4"/>
<path d="M253.5 124H534.656L615.5 209" stroke="white" stroke-dasharray="1 4"/>
<path d="M742 52H954.656L1035.5 147" stroke="white" stroke-dasharray="1 4"/>
<path d="M142.113 511.173L143.382 501.865C143.45 501.369 143.873 501 144.373 501H145.087C145.604 501 146.036 501.394 146.083 501.909L146.923 511.148C146.967 511.639 147.363 512.022 147.854 512.064C152.139 512.433 154.503 513.446 156.907 517.454C157.229 517.989 157.95 518.132 158.509 517.852C160.565 516.822 162.975 517.234 164.426 519.087C164.785 519.546 165.425 519.739 165.953 519.493C170.731 517.261 176 519.378 176 526.5C176 534.1 155 535 144.5 534.5C134.5 534.5 112 535 112 526C112 522.136 116.644 517.484 123.293 521.09C123.711 521.316 124.231 521.248 124.575 520.919C126.397 519.176 127.85 518.793 130.2 519.303C130.667 519.404 131.152 519.188 131.372 518.763C133.586 514.465 135.567 512.462 141.163 512.049C141.646 512.013 142.047 511.652 142.113 511.173Z" fill="white"/>
<ellipse opacity="0.4" cx="146.5" cy="532" rx="41.5" ry="5" stroke="white" stroke-linecap="round" stroke-dasharray="0.5 2"/>
<ellipse opacity="0.2" cx="146.5" cy="532" rx="49.5" ry="6" stroke="white" stroke-linecap="round" stroke-dasharray="0.5 2"/>
<ellipse opacity="0.1" cx="147" cy="532" rx="66" ry="8" stroke="white" stroke-linecap="round" stroke-dasharray="0.5 2"/>
<path d="M139 472.947C139 467.329 143.5 462 144.5 462C145.5 462 150 466.338 150 472.947V496.5H139V472.947Z" fill="white"/>
<path d="M136.727 478.945C137.291 478.081 138.1 477.56 138.434 477.408L138.273 500.616C137.176 501.321 134.946 502.725 134.797 502.706C134.612 502.682 133.721 500.811 133.969 498.89C134.216 496.97 133.981 485.619 134.266 484.874C134.55 484.13 136.022 480.025 136.727 478.945Z" fill="white"/>
<path d="M152.442 479.067C151.897 478.213 151.103 477.709 150.774 477.563L150.498 500.834C151.576 501.516 153.767 502.875 153.915 502.853C154.1 502.825 155.021 500.928 154.811 499.008C154.601 497.088 155.047 485.699 154.778 484.959C154.509 484.219 153.123 480.135 152.442 479.067Z" fill="white"/>
<path d="M153.896 501L151.341 501L151.341 502.334L151.935 503.777L150.703 505.766L154.681 505.766L153.396 503.777L153.896 502.334L153.896 501Z" fill="white" stroke="#000034" stroke-width="0.5"/>
<path d="M137.5 501L134.944 501L134.944 502.335L135.539 503.778L134.307 505.766L138.284 505.766L137 503.778L137.5 502.335L137.5 501Z" fill="white" stroke="#000034" stroke-width="0.5"/>
<path d="M140.09 487.325C140.678 485.981 142.4 470 144.395 470C146.39 470 148.427 485.603 148.595 486.695C148.805 488.06 153.425 492.365 154.055 492.89C154.685 493.415 155 494.885 155 495.2V496.775L147.965 498.14L144.605 498.245H143.975L141.035 498.14L134.21 497.09C134.14 496.775 134 496.061 134 495.725C134 495.305 134.42 493.835 134.735 493.415C135.05 492.995 139.355 489.005 140.09 487.325Z" fill="white" stroke="#000034" stroke-width="0.5"/>
<path d="M141.244 499.82L141.349 498.14C141.314 497.195 141.37 495.095 141.874 494.255C142.378 493.415 143.344 493.835 143.764 494.15L144.499 493.73L145.234 494.15C145.514 493.905 146.242 493.352 146.914 493.94C147.586 494.528 147.964 496.985 148.069 498.14V499.82L147.229 499.925L147.124 500.975L144.184 501.185L142.084 500.975V499.925L141.244 499.82Z" fill="white" stroke="#000034" stroke-width="0.5"/>
<path d="M144.5 501V494" stroke="#000034" stroke-width="0.5"/>
<path d="M142.641 475.918H143.271L143.586 475.183H145.266L145.791 475.918H146.211L146.106 474.973L144.531 474.133L142.746 474.973L142.641 475.918Z" fill="#000034"/>
<path d="M499.665 241.168C505.037 239.524 511.449 242.269 511.742 243.225C512.034 244.181 509.203 249.753 502.882 251.687L480.36 258.576L477.142 248.058L499.665 241.168Z" fill="white"/>
<path d="M482.034 233.246C483.065 233.296 483.923 233.73 484.223 233.941L464.121 245.541C462.959 244.951 460.619 243.738 460.561 243.6C460.488 243.428 461.652 241.713 463.433 240.955C465.215 240.198 474.888 234.253 475.674 234.122C476.46 233.991 480.745 233.185 482.034 233.246Z" fill="white"/>
<path d="M496.385 267.92C497.202 267.322 497.655 266.497 497.778 266.159L474.538 267.374C473.926 268.493 472.71 270.767 472.742 270.913C472.782 271.096 474.733 271.893 476.636 271.561C478.539 271.228 489.933 270.945 490.655 270.629C491.376 270.313 495.363 268.668 496.385 267.92Z" fill="white"/>
<path d="M474.59 270.776L474.427 268.225L473.095 268.311L471.693 268.997L469.629 267.895L469.884 271.864L471.786 270.455L473.258 270.861L474.59 270.776Z" fill="white" stroke="#000034" stroke-width="0.5"/>
<path d="M463.4 245.069L462.107 242.864L460.956 243.539L460.012 244.782L457.673 244.725L459.685 248.157L460.751 246.042L462.248 245.744L463.4 245.069Z" fill="white" stroke="#000034" stroke-width="0.5"/>
<path d="M486.236 246.416C487.693 246.585 503.479 243.557 504.062 245.464C504.646 247.372 490.321 253.884 489.326 254.365C488.082 254.965 485.317 260.642 484.999 261.398C484.682 262.154 483.368 262.885 483.067 262.977L481.561 263.438L478.198 257.11L477.114 253.928L476.93 253.325L476.17 250.483L475.178 243.65C475.459 243.491 476.1 243.148 476.422 243.05C476.823 242.927 478.352 242.898 478.846 243.077C479.34 243.255 484.414 246.204 486.236 246.416Z" fill="white" stroke="#000034" stroke-width="0.5"/>
<path d="M474.625 251.175L476.262 250.784C477.156 250.474 479.18 249.914 480.131 250.15C481.082 250.386 480.963 251.433 480.784 251.926L481.401 252.506L481.214 253.332C481.531 253.528 482.272 254.063 481.907 254.877C481.541 255.692 479.302 256.772 478.228 257.21L476.622 257.702L476.276 256.929L475.241 257.136L474.18 254.386L473.766 252.316L474.771 252.009L474.625 251.175Z" fill="white" stroke="#000034" stroke-width="0.5"/>
<path d="M474.449 254.633L481.143 252.585" stroke="#000034" stroke-width="0.5"/>
<path d="M497.89 245.519L498.075 246.121L498.87 246.208L499.361 247.814L498.812 248.531L498.935 248.933L499.808 248.556L500.15 246.804L498.825 245.343L497.89 245.519Z" fill="#000034"/>
<path d="M831.517 217.096C832.466 216.74 833.123 216.067 833.334 215.775L810.624 210.687C809.734 211.599 807.95 213.462 807.942 213.611C807.931 213.798 809.596 215.091 811.518 215.283C813.44 215.476 824.49 218.271 825.269 218.161C826.049 218.051 830.331 217.54 831.517 217.096Z" fill="white"/>
<path d="M832.243 213.954C832.966 214.635 833.294 215.465 833.369 215.796L810.601 210.978C810.156 209.852 809.279 207.567 809.331 207.438C809.397 207.276 811.436 206.854 813.267 207.463C815.098 208.071 826.306 210.146 826.973 210.551C827.64 210.957 831.341 213.104 832.243 213.954Z" fill="white"/>
<path d="M810.5 213L811.306 209.618L809.98 209.401L808.499 209.618L806.778 208L805.499 212.5L807.874 211.877L809.145 212.772L810.5 213Z" fill="white" stroke="#000034" stroke-width="0.5"/>
<path d="M811.458 180.517C812.86 180.948 828.933 180.838 829.161 182.82C829.388 184.802 814.119 188.603 813.053 188.895C811.721 189.259 807.97 194.339 807.52 195.025C807.07 195.71 805.646 196.191 805.333 196.227L803.768 196.406L801.611 189.572L801.124 186.246L801.052 185.62L800.821 182.688L801.087 175.787C801.392 175.682 802.085 175.462 802.419 175.423C802.836 175.375 804.345 175.625 804.798 175.89C805.251 176.155 809.705 179.978 811.458 180.517Z" fill="white" stroke="#000034" stroke-width="0.5"/>
<path d="M799.176 183.087L800.857 183C801.792 182.858 803.884 182.674 804.776 183.079C805.668 183.484 805.361 184.492 805.096 184.945L805.597 185.627L805.263 186.405C805.539 186.656 806.171 187.316 805.663 188.051C805.156 188.785 802.758 189.441 801.622 189.677L799.953 189.868L799.753 189.045L798.698 189.061L798.155 186.164L798.124 184.053L799.167 183.934L799.176 183.087Z" fill="white" stroke="#000034" stroke-width="0.5"/>
<path d="M798.374 186.456L805.328 185.658" stroke="#000034" stroke-width="0.5"/>
<path d="M823.082 181.752L823.154 182.378L823.92 182.607L824.111 184.276L823.441 184.882L823.489 185.299L824.416 185.087L825.071 183.427L824.033 181.749L823.082 181.752Z" fill="#000034"/>
<path d="M1094.46 147.001C1095.86 147.434 1111.93 147.347 1112.16 149.329C1112.38 151.311 1097.11 155.091 1096.04 155.381C1094.71 155.743 1090.95 160.818 1090.5 161.503C1090.05 162.188 1088.62 162.667 1088.31 162.702L1086.74 162.879L1084.6 156.043L1084.11 152.716L1084.04 152.09L1083.82 149.157L1084.09 142.257C1084.4 142.152 1085.09 141.933 1085.42 141.895C1085.84 141.847 1087.35 142.099 1087.8 142.365C1088.26 142.631 1092.7 146.46 1094.46 147.001Z" fill="white" stroke="#000034" stroke-width="0.5"/>
<path d="M1082.17 149.554L1083.85 149.47C1084.79 149.329 1086.88 149.148 1087.77 149.554C1088.66 149.96 1088.35 150.968 1088.09 151.42L1088.59 152.103L1088.25 152.881C1088.53 153.132 1089.16 153.793 1088.65 154.527C1088.14 155.261 1085.74 155.913 1084.61 156.147L1082.94 156.336L1082.74 155.513L1081.68 155.527L1081.15 152.629L1081.12 150.519L1082.16 150.401L1082.17 149.554Z" fill="white" stroke="#000034" stroke-width="0.5"/>
<path d="M1081.36 152.921L1088.32 152.134" stroke="#000034" stroke-width="0.5"/>
<path d="M1106.08 148.253L1106.15 148.879L1106.91 149.109L1107.1 150.778L1106.43 151.383L1106.48 151.8L1107.41 151.589L1108.06 149.93L1107.03 148.251L1106.08 148.253Z" fill="#000034"/>
<circle cx="1040" cy="157" r="3" fill="white"/>
<circle cx="623" cy="219" r="3" fill="white"/>
<circle cx="357" cy="293" r="3" fill="white"/>
<defs>
<linearGradient id="paint0_linear_923_1836" x1="927.5" y1="176" x2="1143.5" y2="151.5" gradientUnits="userSpaceOnUse">
<stop stop-color="white"/>
<stop offset="1" stop-color="white" stop-opacity="0"/>
</linearGradient>
</defs>
</svg>
